HIERARCHY
ROOT Hips
{
	OFFSET 0.00 0.00 0.00
	CHANNELS 6 Xposition Yposition Zposition Xrotation Yrotation Zrotation
	JOINT Spine
	{
		OFFSET 0.00000 1.92919 2.89379
		CHANNELS 3 Xrotation Yrotation Zrotation
		JOINT Spine1
		{
			OFFSET 0.00000 0.67000 3.79977
			CHANNELS 3 Xrotation Yrotation Zrotation
			JOINT Spine2
			{
				OFFSET 0.00000 0.33628 3.84370
				CHANNELS 3 Xrotation Yrotation Zrotation
				JOINT Spine3
				{
					OFFSET 0.00000 0.00000 3.85838
					CHANNELS 3 Xrotation Yrotation Zrotation
					JOINT Neck
					{
						OFFSET 0.00000 -1.44688 10.12826
						CHANNELS 3 Xrotation Yrotation Zrotation
						JOINT Head
						{
							OFFSET 0.00000 -0.92125 5.22468
							CHANNELS 3 Xrotation Yrotation Zrotation
							End Site
							{
								OFFSET 0.00000 0.00001 6.24576
							}
						}
					}
					JOINT RightShoulder
					{
						OFFSET -1.19724 -1.99539 6.46510
						CHANNELS 3 Xrotation Yrotation Zrotation
						JOINT RightArm
						{
							OFFSET -5.94629 0.00000 0.00000
							CHANNELS 3 Xrotation Yrotation Zrotation
							JOINT RightForeArm
							{
								OFFSET -11.02134 0.00000 0.00000
								CHANNELS 3 Xrotation Yrotation Zrotation
								JOINT RightHand
								{
									OFFSET -10.43440 0.00000 0.00000
									CHANNELS 3 Xrotation Yrotation Zrotation
									JOINT RightHandEnd
									{
										OFFSET -2.82937 0.00000 0.00000
										CHANNELS 3 Xrotation Yrotation Zrotation
										End Site
										{
											OFFSET -2.82937 0.00000 0.00000
										}
									}
									JOINT RightHandThumb1
									{
										OFFSET -1.13175 -1.88625 -0.75450
										CHANNELS 3 Yrotation Xrotation Zrotation
										End Site
										{
											OFFSET -2.73296 -0.73229 0.00000
										}
									}
								}
							}
						}
					}
					JOINT LeftShoulder
					{
						OFFSET 1.19724 -1.99539 6.46510
						CHANNELS 3 Xrotation Yrotation Zrotation
						JOINT LeftArm
						{
							OFFSET 5.94629 0.00000 0.00000
							CHANNELS 3 Xrotation Yrotation Zrotation
							JOINT LeftForeArm
							{
								OFFSET 11.02134 0.00000 0.00000
								CHANNELS 3 Xrotation Yrotation Zrotation
								JOINT LeftHand
								{
									OFFSET 10.43440 0.00000 0.00000
									CHANNELS 3 Xrotation Yrotation Zrotation
									JOINT LeftHandEnd
									{
										OFFSET 2.82937 0.00000 0.00000
										CHANNELS 3 Xrotation Yrotation Zrotation
										End Site
										{
											OFFSET 2.82937 0.00000 0.00000
										}
									}
									JOINT LeftHandThumb1
									{
										OFFSET 1.13175 -1.88625 -0.75450
										CHANNELS 3 Yrotation Xrotation Zrotation
										End Site
										{
											OFFSET 2.73296 -0.73229 0.00000
										}
									}
								}
							}
						}
					}
				}
			}
		}
	}
	JOINT RightUpLeg
	{
		OFFSET -3.55181 0.00000 -1.03761
		CHANNELS 3 Xrotation Yrotation Zrotation
		JOINT RightLeg
		{
			OFFSET 0.00001 0.00000 -15.86106
			CHANNELS 3 Xrotation Yrotation Zrotation
			JOINT RightFoot
			{
				OFFSET 0.00001 0.00000 -16.30493
				CHANNELS 3 Xrotation Yrotation Zrotation
				JOINT RightToeBase
				{
					OFFSET 0.00000 -5.76215 -2.09725
					CHANNELS 3 Xrotation Yrotation Zrotation
					End Site
					{
						OFFSET 0.00000 -2.87338 -0.00000
					}
				}
			}
		}
	}
	JOINT LeftUpLeg
	{
		OFFSET 3.55181 0.00000 -1.03761
		CHANNELS 3 Xrotation Yrotation Zrotation
		JOINT LeftLeg
		{
			OFFSET 0.00001 0.00000 -15.86106
			CHANNELS 3 Xrotation Yrotation Zrotation
			JOINT LeftFoot
			{
				OFFSET 0.00001 0.00000 -16.30493
				CHANNELS 3 Xrotation Yrotation Zrotation
				JOINT LeftToeBase
				{
					OFFSET 0.00000 -5.76215 -2.09725
					CHANNELS 3 Xrotation Yrotation Zrotation
					End Site
					{
						OFFSET 0.00000 -2.87338 -0.00000
					}
				}
			}
		}
	}
}
MOTION
Frames: 7
Frame Time: 0.008342
 -20.3740 -14.6064 35.3990 3.3507 -0.0147 88.1209 2.6218 3.3276 -0.6897 0.2698 0.7550 -0.1892 7.8818 0.1382 -3.7033 2.8517 0.4183 -1.5550 2.4542 -0.4047 0.6715 0.1899 0.3406 3.6142 8.6961 -3.5949 10.4097 -20.1089 -45.3695 3.7620 -0.0000 0.0001 86.6385 -17.9798 27.8780 -4.0616 0.0000 0.0000 0.0000 -0.0000 -0.0000 -0.0000 10.5955 1.2955 -8.9827 35.0773 39.0344 -55.4102 -0.0001 -0.0001 -94.7012 -15.8334 -47.1715 -3.6974 -0.0000 0.0000 -0.0000 0.0000 -0.0000 -0.0000 -21.1363 1.6651 -16.9580 17.9669 0.0000 0.0000 -0.6521 0.3394 -9.1184 -17.6177 0.0000 -0.0000 4.5940 8.7738 26.3167 8.1369 0.0000 0.0000 -10.9625 -0.4845 -3.3793 -6.4369 0.0000 -0.0000
 -20.1863 -14.6519 35.3822 3.3130 -0.2560 88.0801 2.6052 3.3351 -0.6354 0.2428 0.7467 -0.1875 7.9568 0.0809 -3.7278 2.8846 0.4043 -1.5357 2.5164 -0.3398 0.6731 0.1592 0.4893 3.6324 8.8173 -3.7005 10.3571 -19.5871 -45.8038 4.1275 -0.0000 0.0001 86.5291 -17.5486 28.0199 -4.0820 -0.0000 0.0000 -0.0000 -0.0000 -0.0000 0.0000 10.6291 1.3763 -9.0848 35.1613 38.2289 -55.0396 -0.0001 -0.0001 -94.1499 -15.4882 -47.0808 -3.2006 0.0000 -0.0000 0.0000 0.0000 0.0000 0.0000 -20.3658 1.6304 -18.2810 17.2047 0.0000 0.0000 -0.2844 0.8569 -8.0424 -14.7720 0.0000 -0.0000 5.0263 8.6330 25.7990 8.4496 0.0000 0.0000 -11.2582 -0.1472 -2.7867 -6.4709 0.0000 -0.0000
 -19.9986 -14.7020 35.3647 3.2470 -0.4938 88.0124 2.5960 3.3204 -0.5763 0.2175 0.7237 -0.1870 8.0131 0.0290 -3.7249 2.9137 0.3898 -1.5096 2.5805 -0.2686 0.6815 0.1482 0.6404 3.6482 8.9482 -3.8113 10.3010 -18.9818 -46.2588 4.5381 -0.0000 0.0001 86.4212 -17.1323 28.1703 -4.1014 0.0000 0.0000 -0.0000 0.0000 0.0000 0.0000 10.6582 1.4823 -9.1663 35.2438 37.4172 -54.6088 -0.0001 -0.0001 -93.5994 -15.1105 -46.9921 -2.7001 0.0000 0.0000 -0.0000 -0.0000 -0.0000 0.0000 -19.6470 1.5546 -19.4459 16.6570 0.0000 0.0000 -0.0234 1.4760 -7.1606 -11.8149 0.0000 -0.0000 5.3798 8.4361 25.1686 8.9166 0.0000 0.0000 -11.6417 0.1855 -2.0483 -6.4831 0.0000 -0.0000
 -19.8124 -14.7569 35.3473 3.1462 -0.7290 87.9222 2.6014 3.2802 -0.5176 0.1964 0.6876 -0.1867 8.0477 -0.0214 -3.6972 2.9370 0.3720 -1.4761 2.6435 -0.1913 0.6979 0.1535 0.7923 3.6629 9.0865 -3.9190 10.2432 -18.2963 -46.7398 4.9927 -0.0000 0.0001 86.3079 -16.7364 28.3264 -4.1227 0.0000 -0.0000 0.0000 -0.0000 -0.0000 0.0000 10.6849 1.6028 -9.2227 35.3292 36.6199 -54.1379 -0.0001 -0.0001 -93.0443 -14.6943 -46.9097 -2.1971 0.0000 0.0000 -0.0000 0.0000 0.0000 0.0000 -18.9769 1.4313 -20.4291 16.2941 0.0000 0.0000 0.1311 2.1508 -6.4580 -8.9186 0.0000 -0.0000 5.6304 8.1725 24.4171 9.5804 0.0000 0.0000 -12.1225 0.5118 -1.1551 -6.4877 0.0000 -0.0000
 -19.6307 -14.8162 35.3305 3.0090 -0.9385 87.8173 2.6074 3.2126 -0.4661 0.1776 0.6429 -0.1844 8.0623 -0.0768 -3.6492 2.9527 0.3538 -1.4338 2.7015 -0.1142 0.7198 0.1689 0.9444 3.6787 9.2299 -4.0195 10.1857 -17.5398 -47.2534 5.4859 -0.0000 0.0001 86.1826 -16.3625 28.4851 -4.1489 0.0000 0.0000 0.0000 0.0000 0.0000 0.0000 10.7109 1.7297 -9.2585 35.4107 35.8542 -53.6299 -0.0001 -0.0001 -92.4860 -14.2373 -46.8325 -1.6896 0.0000 -0.0000 -0.0000 -0.0000 0.0000 0.0000 -18.3810 1.2579 -21.2140 16.0854 0.0000 0.0000 0.1900 2.8346 -5.9194 -6.2441 0.0000 -0.0000 5.7193 7.8358 23.5360 10.4964 0.0000 0.0000 -12.7053 0.8281 -0.0990 -6.5073 0.0000 -0.0000
 -19.4576 -14.8787 35.3142 2.8502 -1.0927 87.7063 2.5960 3.1348 -0.4248 0.1583 0.5848 -0.1854 8.0562 -0.1326 -3.5835 2.9607 0.3307 -1.3815 2.7482 -0.0390 0.7462 0.1883 1.0946 3.6965 9.3723 -4.1067 10.1281 -16.7150 -47.8042 6.0187 -0.0000 0.0001 86.0388 -16.0124 28.6453 -4.1817 -0.0000 0.0000 -0.0000 0.0000 -0.0000 0.0000 10.7404 1.8500 -9.2720 35.4820 35.1389 -53.1026 -0.0001 -0.0001 -91.9188 -13.7439 -46.7622 -1.1848 -0.0000 -0.0000 0.0000 0.0000 -0.0000 0.0000 -17.9007 1.0502 -21.7905 16.0157 0.0000 0.0000 0.1606 3.4925 -5.5264 -3.9158 0.0000 -0.0000 5.5832 7.4427 22.5188 11.7077 0.0000 0.0000 -13.3745 1.1351 1.1249 -6.5741 0.0000 -0.0000
 -19.2947 -14.9445 35.2989 2.6643 -1.1861 87.6026 2.5678 3.0386 -0.3980 0.1349 0.5209 -0.1876 8.0344 -0.1943 -3.5066 2.9598 0.3045 -1.3224 2.7802 0.0270 0.7731 0.2049 1.2418 3.7184 9.5113 -4.1745 10.0704 -15.8297 -48.4013 6.5886 -0.0000 0.0001 85.8712 -15.6837 28.8050 -4.2237 0.0000 0.0000 0.0000 0.0000 0.0000 -0.0000 10.7722 1.9468 -9.2692 35.5398 34.4983 -52.5625 -0.0001 -0.0001 -91.3456 -13.2080 -46.6946 -0.6762 -0.0000 -0.0000 -0.0000 -0.0000 -0.0000 0.0000 -17.5344 0.8005 -22.1754 16.0462 0.0000 0.0000 0.0607 4.0946 -5.2581 -2.0162 0.0000 -0.0000 5.1929 6.9880 21.3948 13.2496 0.0000 0.0000 -14.1077 1.4440 2.4813 -6.7239 0.0000 -0.0000
